<?xml version="1.0" encoding="UTF-8" standalone="no"?>
<!DOCTYPE svg PUBLIC "-//W3C//DTD SVG 1.1//EN"
 "http://www.w3.org/Graphics/SVG/1.1/DTD/svg11.dtd">
<!-- Generated by graphviz version 14.0.5 (20251129.0259)
 -->
<!-- Title: //wsl.localhost/arch_zyc/home/archwanghongfei/Documents/GitHubWSL/CFD_inWSL_MF_initial/Euler1D/roe_flux.H Pages: 1 -->
<svg width="318pt" height="132pt"
 viewBox="0.00 0.00 318.00 132.00" xmlns="http://www.w3.org/2000/svg" xmlns:xlink="http://www.w3.org/1999/xlink">
<g id="graph0" class="graph" transform="scale(1 1) rotate(0) translate(4 128)">
<title>//wsl.localhost/arch_zyc/home/archwanghongfei/Documents/GitHubWSL/CFD_inWSL_MF_initial/Euler1D/roe_flux.H</title>
<!-- Node1 -->
<g id="Node000001" class="node">
<title>Node1</title>
<g id="a_Node000001"><a xlink:title=" ">
<polygon fill="#999999" stroke="#666666" points="226.38,-124 77.62,-124 77.62,-56 226.38,-56 226.38,-124"/>
<text xml:space="preserve" text-anchor="start" x="85.62" y="-110.5" font-family="Helvetica,sans-Serif" font-size="10.00">//wsl.localhost/arch</text>
<text xml:space="preserve" text-anchor="start" x="85.62" y="-98.5" font-family="Helvetica,sans-Serif" font-size="10.00">_zyc/home/archwanghongfei</text>
<text xml:space="preserve" text-anchor="start" x="85.62" y="-86.5" font-family="Helvetica,sans-Serif" font-size="10.00">/Documents/GitHubWSL/CFD</text>
<text xml:space="preserve" text-anchor="start" x="85.62" y="-74.5" font-family="Helvetica,sans-Serif" font-size="10.00">_inWSL_MF_initial/Euler1D</text>
<text xml:space="preserve" text-anchor="middle" x="152" y="-62.5" font-family="Helvetica,sans-Serif" font-size="10.00">/roe_flux.H</text>
</a>
</g>
</g>
<!-- Node2 -->
<g id="Node000002" class="node">
<title>Node2</title>
<g id="a_Node000002"><a xlink:title=" ">
<polygon fill="#e0e0e0" stroke="#999999" points="88,-20 0,-20 0,0 88,0 88,-20"/>
<text xml:space="preserve" text-anchor="middle" x="44" y="-6.5" font-family="Helvetica,sans-Serif" font-size="10.00">AMReX_Math.H</text>
</a>
</g>
</g>
<!-- Node1&#45;&gt;Node2 -->
<g id="edge1_Node000001_Node000002" class="edge">
<title>Node1&#45;&gt;Node2</title>
<g id="a_edge1_Node000001_Node000002"><a xlink:title=" ">
<path fill="none" stroke="#63b8ff" d="M105.89,-55.69C92.05,-45.7 77.51,-35.2 66,-26.89"/>
<polygon fill="#63b8ff" stroke="#63b8ff" points="68.15,-24.12 57.99,-21.1 64.05,-29.8 68.15,-24.12"/>
</a>
</g>
</g>
<!-- Node3 -->
<g id="Node000003" class="node">
<title>Node3</title>
<g id="a_Node000003"><a xlink:title=" ">
<polygon fill="#e0e0e0" stroke="#999999" points="198.25,-20 105.75,-20 105.75,0 198.25,0 198.25,-20"/>
<text xml:space="preserve" text-anchor="middle" x="152" y="-6.5" font-family="Helvetica,sans-Serif" font-size="10.00">AMReX_REAL.H</text>
</a>
</g>
</g>
<!-- Node1&#45;&gt;Node3 -->
<g id="edge2_Node000001_Node000003" class="edge">
<title>Node1&#45;&gt;Node3</title>
<g id="a_edge2_Node000001_Node000003"><a xlink:title=" ">
<path fill="none" stroke="#63b8ff" d="M152,-55.92C152,-47.72 152,-39.17 152,-31.75"/>
<polygon fill="#63b8ff" stroke="#63b8ff" points="155.5,-31.79 152,-21.79 148.5,-31.79 155.5,-31.79"/>
</a>
</g>
</g>
<!-- Node4 -->
<g id="Node000004" class="node">
<title>Node4</title>
<g id="a_Node000004"><a xlink:title=" ">
<polygon fill="#e0e0e0" stroke="#999999" points="310,-20 216,-20 216,0 310,0 310,-20"/>
<text xml:space="preserve" text-anchor="middle" x="263" y="-6.5" font-family="Helvetica,sans-Serif" font-size="10.00">AMReX_Vector.H</text>
</a>
</g>
</g>
<!-- Node1&#45;&gt;Node4 -->
<g id="edge3_Node000001_Node000004" class="edge">
<title>Node1&#45;&gt;Node4</title>
<g id="a_edge3_Node000001_Node000004"><a xlink:title=" ">
<path fill="none" stroke="#63b8ff" d="M199.4,-55.69C213.76,-45.6 228.86,-34.99 240.74,-26.64"/>
<polygon fill="#63b8ff" stroke="#63b8ff" points="242.47,-29.7 248.64,-21.09 238.45,-23.97 242.47,-29.7"/>
</a>
</g>
</g>
</g>
</svg>
