<?xml version="1.0" encoding="UTF-8" standalone="no"?>
<!DOCTYPE svg PUBLIC "-//W3C//DTD SVG 1.1//EN"
 "http://www.w3.org/Graphics/SVG/1.1/DTD/svg11.dtd">
<!-- Generated by graphviz version 14.0.5 (20251129.0259)
 -->
<!-- Title: //wsl.localhost/arch_zyc/home/archwanghongfei/Documents/GitHubWSL/CFD_inWSL_MF_initial/reconstruction_scheme/muscl_recon.H Pages: 1 -->
<svg width="444pt" height="188pt"
 viewBox="0.00 0.00 444.00 188.00" xmlns="http://www.w3.org/2000/svg" xmlns:xlink="http://www.w3.org/1999/xlink">
<g id="graph0" class="graph" transform="scale(1 1) rotate(0) translate(4 184)">
<title>//wsl.localhost/arch_zyc/home/archwanghongfei/Documents/GitHubWSL/CFD_inWSL_MF_initial/reconstruction_scheme/muscl_recon.H</title>
<!-- Node1 -->
<g id="Node000001" class="node">
<title>Node1</title>
<g id="a_Node000001"><a xlink:title=" ">
<polygon fill="#999999" stroke="#666666" points="357.12,-180 194.88,-180 194.88,-112 357.12,-112 357.12,-180"/>
<text xml:space="preserve" text-anchor="start" x="202.88" y="-166.5" font-family="Helvetica,sans-Serif" font-size="10.00">//wsl.localhost/arch</text>
<text xml:space="preserve" text-anchor="start" x="202.88" y="-154.5" font-family="Helvetica,sans-Serif" font-size="10.00">_zyc/home/archwanghongfei</text>
<text xml:space="preserve" text-anchor="start" x="202.88" y="-142.5" font-family="Helvetica,sans-Serif" font-size="10.00">/Documents/GitHubWSL/CFD</text>
<text xml:space="preserve" text-anchor="start" x="202.88" y="-130.5" font-family="Helvetica,sans-Serif" font-size="10.00">_inWSL_MF_initial/reconstruction</text>
<text xml:space="preserve" text-anchor="middle" x="276" y="-118.5" font-family="Helvetica,sans-Serif" font-size="10.00">_scheme/muscl_recon.H</text>
</a>
</g>
</g>
<!-- Node2 -->
<g id="Node000002" class="node">
<title>Node2</title>
<g id="a_Node000002"><a xlink:href="../../d0/d3f/linear__algebra_8_h.html" target="_top" xlink:title=" ">
<polygon fill="white" stroke="#666666" points="248.25,-76 161.75,-76 161.75,-56 248.25,-56 248.25,-76"/>
<text xml:space="preserve" text-anchor="middle" x="205" y="-62.5" font-family="Helvetica,sans-Serif" font-size="10.00">linear_algebra.H</text>
</a>
</g>
</g>
<!-- Node1&#45;&gt;Node2 -->
<g id="edge1_Node000001_Node000002" class="edge">
<title>Node1&#45;&gt;Node2</title>
<g id="a_edge1_Node000001_Node000002"><a xlink:title=" ">
<path fill="none" stroke="#63b8ff" d="M245.89,-111.92C237.32,-102.51 228.33,-92.63 220.96,-84.53"/>
<polygon fill="#63b8ff" stroke="#63b8ff" points="223.78,-82.44 214.46,-77.4 218.61,-87.15 223.78,-82.44"/>
</a>
</g>
</g>
<!-- Node4 -->
<g id="Node000004" class="node">
<title>Node4</title>
<g id="a_Node000004"><a xlink:title=" ">
<polygon fill="#e0e0e0" stroke="#999999" points="88,-20 0,-20 0,0 88,0 88,-20"/>
<text xml:space="preserve" text-anchor="middle" x="44" y="-6.5" font-family="Helvetica,sans-Serif" font-size="10.00">AMReX_Math.H</text>
</a>
</g>
</g>
<!-- Node1&#45;&gt;Node4 -->
<g id="edge7_Node000001_Node000004" class="edge">
<title>Node1&#45;&gt;Node4</title>
<g id="a_edge7_Node000001_Node000004"><a xlink:title=" ">
<path fill="none" stroke="#63b8ff" d="M215.76,-111.63C195.73,-100.42 173.35,-87.77 153,-76 124.02,-59.24 91.05,-39.48 69.03,-26.18"/>
<polygon fill="#63b8ff" stroke="#63b8ff" points="71.11,-23.35 60.74,-21.17 67.49,-29.34 71.11,-23.35"/>
</a>
</g>
</g>
<!-- Node5 -->
<g id="Node000005" class="node">
<title>Node5</title>
<g id="a_Node000005"><a xlink:title=" ">
<polygon fill="#e0e0e0" stroke="#999999" points="322.25,-20 229.75,-20 229.75,0 322.25,0 322.25,-20"/>
<text xml:space="preserve" text-anchor="middle" x="276" y="-6.5" font-family="Helvetica,sans-Serif" font-size="10.00">AMReX_REAL.H</text>
</a>
</g>
</g>
<!-- Node1&#45;&gt;Node5 -->
<g id="edge8_Node000001_Node000005" class="edge">
<title>Node1&#45;&gt;Node5</title>
<g id="a_edge8_Node000001_Node000005"><a xlink:title=" ">
<path fill="none" stroke="#63b8ff" d="M276,-111.53C276,-86.5 276,-53.04 276,-31.75"/>
<polygon fill="#63b8ff" stroke="#63b8ff" points="279.5,-31.77 276,-21.77 272.5,-31.77 279.5,-31.77"/>
</a>
</g>
</g>
<!-- Node6 -->
<g id="Node000006" class="node">
<title>Node6</title>
<g id="a_Node000006"><a xlink:title=" ">
<polygon fill="#e0e0e0" stroke="#999999" points="383.5,-20 340.5,-20 340.5,0 383.5,0 383.5,-20"/>
<text xml:space="preserve" text-anchor="middle" x="362" y="-6.5" font-family="Helvetica,sans-Serif" font-size="10.00">vector</text>
</a>
</g>
</g>
<!-- Node1&#45;&gt;Node6 -->
<g id="edge9_Node000001_Node000006" class="edge">
<title>Node1&#45;&gt;Node6</title>
<g id="a_edge9_Node000001_Node000006"><a xlink:title=" ">
<path fill="none" stroke="#63b8ff" d="M297.36,-111.6C308.05,-94.89 321.2,-74.37 333,-56 338.52,-47.41 344.64,-37.9 349.83,-29.85"/>
<polygon fill="#63b8ff" stroke="#63b8ff" points="352.69,-31.88 355.17,-21.57 346.81,-28.08 352.69,-31.88"/>
</a>
</g>
</g>
<!-- Node7 -->
<g id="Node000007" class="node">
<title>Node7</title>
<g id="a_Node000007"><a xlink:title=" ">
<polygon fill="#e0e0e0" stroke="#999999" points="436.38,-76 341.62,-76 341.62,-56 436.38,-56 436.38,-76"/>
<text xml:space="preserve" text-anchor="middle" x="389" y="-62.5" font-family="Helvetica,sans-Serif" font-size="10.00">AMReX_Array4.H</text>
</a>
</g>
</g>
<!-- Node1&#45;&gt;Node7 -->
<g id="edge6_Node000001_Node000007" class="edge">
<title>Node1&#45;&gt;Node7</title>
<g id="a_edge6_Node000001_Node000007"><a xlink:title=" ">
<path fill="none" stroke="#63b8ff" d="M324.25,-111.69C338.87,-101.6 354.25,-90.99 366.34,-82.64"/>
<polygon fill="#63b8ff" stroke="#63b8ff" points="368.16,-85.64 374.4,-77.08 364.18,-79.88 368.16,-85.64"/>
</a>
</g>
</g>
<!-- Node3 -->
<g id="Node000003" class="node">
<title>Node3</title>
<g id="a_Node000003"><a xlink:title=" ">
<polygon fill="#e0e0e0" stroke="#999999" points="211.62,-20 106.38,-20 106.38,0 211.62,0 211.62,-20"/>
<text xml:space="preserve" text-anchor="middle" x="159" y="-6.5" font-family="Helvetica,sans-Serif" font-size="10.00">AMReX_BLassert.H</text>
</a>
</g>
</g>
<!-- Node2&#45;&gt;Node3 -->
<g id="edge2_Node000002_Node000003" class="edge">
<title>Node2&#45;&gt;Node3</title>
<g id="a_edge2_Node000002_Node000003"><a xlink:title=" ">
<path fill="none" stroke="#63b8ff" d="M196.99,-55.59C190.72,-48.24 181.83,-37.8 174.22,-28.87"/>
<polygon fill="#63b8ff" stroke="#63b8ff" points="177.05,-26.79 167.9,-21.45 171.72,-31.33 177.05,-26.79"/>
</a>
</g>
</g>
<!-- Node2&#45;&gt;Node4 -->
<g id="edge3_Node000002_Node000004" class="edge">
<title>Node2&#45;&gt;Node4</title>
<g id="a_edge3_Node000002_Node000004"><a xlink:title=" ">
<path fill="none" stroke="#63b8ff" d="M176.96,-55.59C150.91,-46.86 111.9,-33.77 82.86,-24.03"/>
<polygon fill="#63b8ff" stroke="#63b8ff" points="84.29,-20.82 73.7,-20.96 82.07,-27.46 84.29,-20.82"/>
</a>
</g>
</g>
<!-- Node2&#45;&gt;Node5 -->
<g id="edge4_Node000002_Node000005" class="edge">
<title>Node2&#45;&gt;Node5</title>
<g id="a_edge4_Node000002_Node000005"><a xlink:title=" ">
<path fill="none" stroke="#63b8ff" d="M217.37,-55.59C227.65,-47.77 242.52,-36.46 254.71,-27.19"/>
<polygon fill="#63b8ff" stroke="#63b8ff" points="256.73,-30.05 262.57,-21.21 252.49,-24.48 256.73,-30.05"/>
</a>
</g>
</g>
<!-- Node2&#45;&gt;Node6 -->
<g id="edge5_Node000002_Node000006" class="edge">
<title>Node2&#45;&gt;Node6</title>
<g id="a_edge5_Node000002_Node000006"><a xlink:title=" ">
<path fill="none" stroke="#63b8ff" d="M232.35,-55.59C259.34,-46.31 300.62,-32.11 329.32,-22.24"/>
<polygon fill="#63b8ff" stroke="#63b8ff" points="330.28,-25.61 338.59,-19.05 328,-18.99 330.28,-25.61"/>
</a>
</g>
</g>
</g>
</svg>
