<?xml version="1.0" encoding="UTF-8" standalone="no"?>
<!DOCTYPE svg PUBLIC "-//W3C//DTD SVG 1.1//EN"
 "http://www.w3.org/Graphics/SVG/1.1/DTD/svg11.dtd">
<!-- Generated by graphviz version 14.0.5 (20251129.0259)
 -->
<!-- Title: //wsl.localhost/arch_zyc/home/archwanghongfei/Documents/GitHubWSL/CFD_inWSL_MF_initial/Euler2D/eigen_system.cpp Pages: 1 -->
<svg width="874pt" height="244pt"
 viewBox="0.00 0.00 874.00 244.00" xmlns="http://www.w3.org/2000/svg" xmlns:xlink="http://www.w3.org/1999/xlink">
<g id="graph0" class="graph" transform="scale(1 1) rotate(0) translate(4 240)">
<title>//wsl.localhost/arch_zyc/home/archwanghongfei/Documents/GitHubWSL/CFD_inWSL_MF_initial/Euler2D/eigen_system.cpp</title>
<!-- Node1 -->
<g id="Node000001" class="node">
<title>Node1</title>
<g id="a_Node000001"><a xlink:title=" ">
<polygon fill="#999999" stroke="#666666" points="440.49,-236 291.74,-236 291.74,-168 440.49,-168 440.49,-236"/>
<text xml:space="preserve" text-anchor="start" x="299.74" y="-222.5" font-family="Helvetica,sans-Serif" font-size="10.00">//wsl.localhost/arch</text>
<text xml:space="preserve" text-anchor="start" x="299.74" y="-210.5" font-family="Helvetica,sans-Serif" font-size="10.00">_zyc/home/archwanghongfei</text>
<text xml:space="preserve" text-anchor="start" x="299.74" y="-198.5" font-family="Helvetica,sans-Serif" font-size="10.00">/Documents/GitHubWSL/CFD</text>
<text xml:space="preserve" text-anchor="start" x="299.74" y="-186.5" font-family="Helvetica,sans-Serif" font-size="10.00">_inWSL_MF_initial/Euler2D</text>
<text xml:space="preserve" text-anchor="middle" x="366.12" y="-174.5" font-family="Helvetica,sans-Serif" font-size="10.00">/eigen_system.cpp</text>
</a>
</g>
</g>
<!-- Node2 -->
<g id="Node000002" class="node">
<title>Node2</title>
<g id="a_Node000002"><a xlink:href="../../d0/d9f/eigen__system_8_h.html" target="_top" xlink:title=" ">
<polygon fill="white" stroke="#666666" points="178.74,-132 91.49,-132 91.49,-112 178.74,-112 178.74,-132"/>
<text xml:space="preserve" text-anchor="middle" x="135.12" y="-118.5" font-family="Helvetica,sans-Serif" font-size="10.00">eigen_system.H</text>
</a>
</g>
</g>
<!-- Node1&#45;&gt;Node2 -->
<g id="edge1_Node000001_Node000002" class="edge">
<title>Node1&#45;&gt;Node2</title>
<g id="a_edge1_Node000001_Node000002"><a xlink:title=" ">
<path fill="none" stroke="#63b8ff" d="M291.44,-175.78C252.17,-162.52 205.68,-146.83 173.67,-136.02"/>
<polygon fill="#63b8ff" stroke="#63b8ff" points="175.01,-132.78 164.42,-132.89 172.77,-139.41 175.01,-132.78"/>
</a>
</g>
</g>
<!-- Node7 -->
<g id="Node000007" class="node">
<title>Node7</title>
<g id="a_Node000007"><a xlink:href="../../dc/db7/_euler2_d_2equation_8_h.html" target="_top" xlink:title=" ">
<polygon fill="white" stroke="#666666" points="397.74,-132 334.49,-132 334.49,-112 397.74,-112 397.74,-132"/>
<text xml:space="preserve" text-anchor="middle" x="366.12" y="-118.5" font-family="Helvetica,sans-Serif" font-size="10.00">equation.H</text>
</a>
</g>
</g>
<!-- Node1&#45;&gt;Node7 -->
<g id="edge6_Node000001_Node000007" class="edge">
<title>Node1&#45;&gt;Node7</title>
<g id="a_edge6_Node000001_Node000007"><a xlink:title=" ">
<path fill="none" stroke="#63b8ff" d="M366.12,-167.92C366.12,-159.72 366.12,-151.17 366.12,-143.75"/>
<polygon fill="#63b8ff" stroke="#63b8ff" points="369.62,-143.79 366.12,-133.79 362.62,-143.79 369.62,-143.79"/>
</a>
</g>
</g>
<!-- Node11 -->
<g id="Node000011" class="node">
<title>Node11</title>
<g id="a_Node000011"><a xlink:href="../../d0/d3f/linear__algebra_8_h.html" target="_top" xlink:title=" ">
<polygon fill="white" stroke="#666666" points="688.37,-132 601.87,-132 601.87,-112 688.37,-112 688.37,-132"/>
<text xml:space="preserve" text-anchor="middle" x="645.12" y="-118.5" font-family="Helvetica,sans-Serif" font-size="10.00">linear_algebra.H</text>
</a>
</g>
</g>
<!-- Node1&#45;&gt;Node11 -->
<g id="edge13_Node000001_Node000011" class="edge">
<title>Node1&#45;&gt;Node11</title>
<g id="a_edge13_Node000001_Node000011"><a xlink:title=" ">
<path fill="none" stroke="#63b8ff" d="M440.89,-180.1C491.71,-165.89 557.26,-147.56 600.21,-135.56"/>
<polygon fill="#63b8ff" stroke="#63b8ff" points="601,-138.97 609.69,-132.9 599.12,-132.23 601,-138.97"/>
</a>
</g>
</g>
<!-- Node3 -->
<g id="Node000003" class="node">
<title>Node3</title>
<g id="a_Node000003"><a xlink:title=" ">
<polygon fill="#e0e0e0" stroke="#999999" points="172.74,-76 97.49,-76 97.49,-56 172.74,-56 172.74,-76"/>
<text xml:space="preserve" text-anchor="middle" x="135.12" y="-62.5" font-family="Helvetica,sans-Serif" font-size="10.00">Prob_Parm.H</text>
</a>
</g>
</g>
<!-- Node2&#45;&gt;Node3 -->
<g id="edge2_Node000002_Node000003" class="edge">
<title>Node2&#45;&gt;Node3</title>
<g id="a_edge2_Node000002_Node000003"><a xlink:title=" ">
<path fill="none" stroke="#63b8ff" d="M135.12,-111.59C135.12,-105.01 135.12,-95.96 135.12,-87.73"/>
<polygon fill="#63b8ff" stroke="#63b8ff" points="138.62,-87.81 135.12,-77.81 131.62,-87.81 138.62,-87.81"/>
</a>
</g>
</g>
<!-- Node4 -->
<g id="Node000004" class="node">
<title>Node4</title>
<g id="a_Node000004"><a xlink:title=" ">
<polygon fill="#e0e0e0" stroke="#999999" points="79.74,-76 16.49,-76 16.49,-56 79.74,-56 79.74,-76"/>
<text xml:space="preserve" text-anchor="middle" x="48.12" y="-62.5" font-family="Helvetica,sans-Serif" font-size="10.00">equation.H</text>
</a>
</g>
</g>
<!-- Node2&#45;&gt;Node4 -->
<g id="edge3_Node000002_Node000004" class="edge">
<title>Node2&#45;&gt;Node4</title>
<g id="a_edge3_Node000002_Node000004"><a xlink:title=" ">
<path fill="none" stroke="#63b8ff" d="M119.96,-111.59C107.07,-103.59 88.29,-91.93 73.16,-82.54"/>
<polygon fill="#63b8ff" stroke="#63b8ff" points="75.02,-79.58 64.68,-77.28 71.33,-85.53 75.02,-79.58"/>
</a>
</g>
</g>
<!-- Node5 -->
<g id="Node000005" class="node">
<title>Node5</title>
<g id="a_Node000005"><a xlink:title=" ">
<polygon fill="#e0e0e0" stroke="#999999" points="303.12,-76 191.12,-76 191.12,-56 303.12,-56 303.12,-76"/>
<text xml:space="preserve" text-anchor="middle" x="247.12" y="-62.5" font-family="Helvetica,sans-Serif" font-size="10.00">AMReX_FArrayBox.H</text>
</a>
</g>
</g>
<!-- Node2&#45;&gt;Node5 -->
<g id="edge4_Node000002_Node000005" class="edge">
<title>Node2&#45;&gt;Node5</title>
<g id="a_edge4_Node000002_Node000005"><a xlink:title=" ">
<path fill="none" stroke="#63b8ff" d="M154.63,-111.59C171.87,-103.28 197.28,-91.03 217.1,-81.47"/>
<polygon fill="#63b8ff" stroke="#63b8ff" points="218.61,-84.63 226.09,-77.14 215.57,-78.33 218.61,-84.63"/>
</a>
</g>
</g>
<!-- Node6 -->
<g id="Node000006" class="node">
<title>Node6</title>
<g id="a_Node000006"><a xlink:title=" ">
<polygon fill="#e0e0e0" stroke="#999999" points="406.37,-20 313.87,-20 313.87,0 406.37,0 406.37,-20"/>
<text xml:space="preserve" text-anchor="middle" x="360.12" y="-6.5" font-family="Helvetica,sans-Serif" font-size="10.00">AMReX_REAL.H</text>
</a>
</g>
</g>
<!-- Node2&#45;&gt;Node6 -->
<g id="edge5_Node000002_Node000006" class="edge">
<title>Node2&#45;&gt;Node6</title>
<g id="a_edge5_Node000002_Node000006"><a xlink:title=" ">
<path fill="none" stroke="#63b8ff" d="M91.17,-114.53C43.98,-105.81 -20.72,-87.61 7.12,-56 26.28,-34.25 207.06,-20.2 302.2,-14.26"/>
<polygon fill="#63b8ff" stroke="#63b8ff" points="302.36,-17.75 312.12,-13.65 301.93,-10.77 302.36,-17.75"/>
</a>
</g>
</g>
<!-- Node7&#45;&gt;Node5 -->
<g id="edge11_Node000007_Node000005" class="edge">
<title>Node7&#45;&gt;Node5</title>
<g id="a_edge11_Node000007_Node000005"><a xlink:title=" ">
<path fill="none" stroke="#63b8ff" d="M345.39,-111.59C326.9,-103.21 299.57,-90.8 278.43,-81.21"/>
<polygon fill="#63b8ff" stroke="#63b8ff" points="279.94,-78.05 269.39,-77.1 277.05,-84.42 279.94,-78.05"/>
</a>
</g>
</g>
<!-- Node7&#45;&gt;Node6 -->
<g id="edge12_Node000007_Node000006" class="edge">
<title>Node7&#45;&gt;Node6</title>
<g id="a_edge12_Node000007_Node000006"><a xlink:title=" ">
<path fill="none" stroke="#63b8ff" d="M361.71,-111.6C357.78,-102.67 352.32,-88.75 350.12,-76 347.53,-60.99 350.35,-43.98 353.65,-31.12"/>
<polygon fill="#63b8ff" stroke="#63b8ff" points="356.95,-32.31 356.38,-21.73 350.23,-30.36 356.95,-32.31"/>
</a>
</g>
</g>
<!-- Node8 -->
<g id="Node000008" class="node">
<title>Node8</title>
<g id="a_Node000008"><a xlink:href="../../d5/d9a/_euler2_d_2_prob___parm_8_h.html" target="_top" xlink:title=" ">
<polygon fill="white" stroke="#666666" points="535.74,-76 460.49,-76 460.49,-56 535.74,-56 535.74,-76"/>
<text xml:space="preserve" text-anchor="middle" x="498.12" y="-62.5" font-family="Helvetica,sans-Serif" font-size="10.00">Prob_Parm.H</text>
</a>
</g>
</g>
<!-- Node7&#45;&gt;Node8 -->
<g id="edge7_Node000007_Node000008" class="edge">
<title>Node7&#45;&gt;Node8</title>
<g id="a_edge7_Node000007_Node000008"><a xlink:title=" ">
<path fill="none" stroke="#63b8ff" d="M389.11,-111.59C409.9,-103.09 440.77,-90.46 464.36,-80.81"/>
<polygon fill="#63b8ff" stroke="#63b8ff" points="465.62,-84.08 473.55,-77.05 462.97,-77.6 465.62,-84.08"/>
</a>
</g>
</g>
<!-- Node10 -->
<g id="Node000010" class="node">
<title>Node10</title>
<g id="a_Node000010"><a xlink:title=" ">
<polygon fill="#e0e0e0" stroke="#999999" points="442.87,-76 359.37,-76 359.37,-56 442.87,-56 442.87,-76"/>
<text xml:space="preserve" text-anchor="middle" x="401.12" y="-62.5" font-family="Helvetica,sans-Serif" font-size="10.00">AMReX_Box.H</text>
</a>
</g>
</g>
<!-- Node7&#45;&gt;Node10 -->
<g id="edge10_Node000007_Node000010" class="edge">
<title>Node7&#45;&gt;Node10</title>
<g id="a_edge10_Node000007_Node000010"><a xlink:title=" ">
<path fill="none" stroke="#63b8ff" d="M372.22,-111.59C376.83,-104.47 383.33,-94.45 388.99,-85.72"/>
<polygon fill="#63b8ff" stroke="#63b8ff" points="391.77,-87.86 394.27,-77.57 385.89,-84.06 391.77,-87.86"/>
</a>
</g>
</g>
<!-- Node8&#45;&gt;Node6 -->
<g id="edge9_Node000008_Node000006" class="edge">
<title>Node8&#45;&gt;Node6</title>
<g id="a_edge9_Node000008_Node000006"><a xlink:title=" ">
<path fill="none" stroke="#63b8ff" d="M474.08,-55.59C452.15,-47.01 419.49,-34.23 394.75,-24.55"/>
<polygon fill="#63b8ff" stroke="#63b8ff" points="396.34,-21.42 385.75,-21.03 393.79,-27.93 396.34,-21.42"/>
</a>
</g>
</g>
<!-- Node9 -->
<g id="Node000009" class="node">
<title>Node9</title>
<g id="a_Node000009"><a xlink:title=" ">
<polygon fill="#e0e0e0" stroke="#999999" points="542.49,-20 453.74,-20 453.74,0 542.49,0 542.49,-20"/>
<text xml:space="preserve" text-anchor="middle" x="498.12" y="-6.5" font-family="Helvetica,sans-Serif" font-size="10.00">AMReX_Array.H</text>
</a>
</g>
</g>
<!-- Node8&#45;&gt;Node9 -->
<g id="edge8_Node000008_Node000009" class="edge">
<title>Node8&#45;&gt;Node9</title>
<g id="a_edge8_Node000008_Node000009"><a xlink:title=" ">
<path fill="none" stroke="#63b8ff" d="M498.12,-55.59C498.12,-49.01 498.12,-39.96 498.12,-31.73"/>
<polygon fill="#63b8ff" stroke="#63b8ff" points="501.62,-31.81 498.12,-21.81 494.62,-31.81 501.62,-31.81"/>
</a>
</g>
</g>
<!-- Node11&#45;&gt;Node6 -->
<g id="edge16_Node000011_Node000006" class="edge">
<title>Node11&#45;&gt;Node6</title>
<g id="a_edge16_Node000011_Node000006"><a xlink:title=" ">
<path fill="none" stroke="#63b8ff" d="M633.56,-111.59C615.67,-97.49 579.72,-70.94 545.12,-56 504.28,-38.37 455.25,-26.84 417.93,-19.87"/>
<polygon fill="#63b8ff" stroke="#63b8ff" points="418.7,-16.45 408.24,-18.12 417.46,-23.34 418.7,-16.45"/>
</a>
</g>
</g>
<!-- Node12 -->
<g id="Node000012" class="node">
<title>Node12</title>
<g id="a_Node000012"><a xlink:title=" ">
<polygon fill="#e0e0e0" stroke="#999999" points="697.74,-76 592.49,-76 592.49,-56 697.74,-56 697.74,-76"/>
<text xml:space="preserve" text-anchor="middle" x="645.12" y="-62.5" font-family="Helvetica,sans-Serif" font-size="10.00">AMReX_BLassert.H</text>
</a>
</g>
</g>
<!-- Node11&#45;&gt;Node12 -->
<g id="edge14_Node000011_Node000012" class="edge">
<title>Node11&#45;&gt;Node12</title>
<g id="a_edge14_Node000011_Node000012"><a xlink:title=" ">
<path fill="none" stroke="#63b8ff" d="M645.12,-111.59C645.12,-105.01 645.12,-95.96 645.12,-87.73"/>
<polygon fill="#63b8ff" stroke="#63b8ff" points="648.62,-87.81 645.12,-77.81 641.62,-87.81 648.62,-87.81"/>
</a>
</g>
</g>
<!-- Node13 -->
<g id="Node000013" class="node">
<title>Node13</title>
<g id="a_Node000013"><a xlink:title=" ">
<polygon fill="#e0e0e0" stroke="#999999" points="804.12,-76 716.12,-76 716.12,-56 804.12,-56 804.12,-76"/>
<text xml:space="preserve" text-anchor="middle" x="760.12" y="-62.5" font-family="Helvetica,sans-Serif" font-size="10.00">AMReX_Math.H</text>
</a>
</g>
</g>
<!-- Node11&#45;&gt;Node13 -->
<g id="edge15_Node000011_Node000013" class="edge">
<title>Node11&#45;&gt;Node13</title>
<g id="a_edge15_Node000011_Node000013"><a xlink:title=" ">
<path fill="none" stroke="#63b8ff" d="M665.15,-111.59C682.93,-103.24 709.18,-90.92 729.58,-81.34"/>
<polygon fill="#63b8ff" stroke="#63b8ff" points="731,-84.54 738.56,-77.12 728.02,-78.21 731,-84.54"/>
</a>
</g>
</g>
<!-- Node14 -->
<g id="Node000014" class="node">
<title>Node14</title>
<g id="a_Node000014"><a xlink:title=" ">
<polygon fill="#e0e0e0" stroke="#999999" points="865.62,-76 822.62,-76 822.62,-56 865.62,-56 865.62,-76"/>
<text xml:space="preserve" text-anchor="middle" x="844.12" y="-62.5" font-family="Helvetica,sans-Serif" font-size="10.00">vector</text>
</a>
</g>
</g>
<!-- Node11&#45;&gt;Node14 -->
<g id="edge17_Node000011_Node000014" class="edge">
<title>Node11&#45;&gt;Node14</title>
<g id="a_edge17_Node000011_Node000014"><a xlink:title=" ">
<path fill="none" stroke="#63b8ff" d="M681.23,-111.56C713.03,-103.2 760.86,-90.49 811.32,-76.46"/>
<polygon fill="#63b8ff" stroke="#63b8ff" points="811.97,-79.91 820.66,-73.85 810.09,-73.17 811.97,-79.91"/>
</a>
</g>
</g>
</g>
</svg>
