<?xml version="1.0" encoding="UTF-8" standalone="no"?>
<!DOCTYPE svg PUBLIC "-//W3C//DTD SVG 1.1//EN"
 "http://www.w3.org/Graphics/SVG/1.1/DTD/svg11.dtd">
<!-- Generated by graphviz version 14.0.5 (20251129.0259)
 -->
<!-- Title: for Pages: 1 -->
<svg width="758pt" height="103pt"
 viewBox="0.00 0.00 758.00 103.00" xmlns="http://www.w3.org/2000/svg" xmlns:xlink="http://www.w3.org/1999/xlink">
<g id="graph0" class="graph" transform="scale(1 1) rotate(0) translate(4 99)">
<title>for</title>
<!-- Node1 -->
<g id="Node000001" class="node">
<title>Node1</title>
<g id="a_Node000001"><a xlink:title=" ">
<polygon fill="#999999" stroke="#666666" points="28.8,-48 0,-48 0,-28 28.8,-28 28.8,-48"/>
<text xml:space="preserve" text-anchor="middle" x="14.4" y="-34.5" font-family="Helvetica,sans-Serif" font-size="10.00">for</text>
</a>
</g>
</g>
<!-- Node2 -->
<g id="Node000002" class="node">
<title>Node2</title>
<g id="a_Node000002"><a xlink:href="../../d2/d85/class_amr_level_cong.html#abfc4b4b88adcd13661d78604324a3f8a" target="_top" xlink:title=" ">
<polygon fill="white" stroke="#666666" points="206.8,-76 64.8,-76 64.8,-56 206.8,-56 206.8,-76"/>
<text xml:space="preserve" text-anchor="middle" x="135.8" y="-62.5" font-family="Helvetica,sans-Serif" font-size="10.00">AmrLevelCong::estTimeStep</text>
</a>
</g>
</g>
<!-- Node1&#45;&gt;Node2 -->
<g id="edge1_Node000001_Node000002" class="edge">
<title>Node1&#45;&gt;Node2</title>
<g id="a_edge1_Node000001_Node000002"><a xlink:title=" ">
<path fill="none" stroke="#63b8ff" d="M29.1,-41.21C41.48,-44.12 60.57,-48.59 79.13,-52.95"/>
<polygon fill="#63b8ff" stroke="#63b8ff" points="78.24,-56.33 88.78,-55.21 79.84,-49.52 78.24,-56.33"/>
</a>
</g>
</g>
<!-- Node7 -->
<g id="Node000007" class="node">
<title>Node7</title>
<g id="a_Node000007"><a xlink:href="../../d2/d85/class_amr_level_cong.html#a8bb96fba777e5a12e39aede987b7f501" target="_top" xlink:title=" ">
<polygon fill="white" stroke="#666666" points="197.42,-20 74.17,-20 74.17,0 197.42,0 197.42,-20"/>
<text xml:space="preserve" text-anchor="middle" x="135.8" y="-6.5" font-family="Helvetica,sans-Serif" font-size="10.00">AmrLevelCong::getLevel</text>
</a>
</g>
</g>
<!-- Node1&#45;&gt;Node7 -->
<g id="edge7_Node000001_Node000007" class="edge">
<title>Node1&#45;&gt;Node7</title>
<g id="a_edge7_Node000001_Node000007"><a xlink:title=" ">
<path fill="none" stroke="#63b8ff" d="M29.1,-34.79C41.48,-31.88 60.57,-27.41 79.13,-23.05"/>
<polygon fill="#63b8ff" stroke="#63b8ff" points="79.84,-26.48 88.78,-20.79 78.24,-19.67 79.84,-26.48"/>
</a>
</g>
</g>
<!-- Node3 -->
<g id="Node000003" class="node">
<title>Node3</title>
<g id="a_Node000003"><a xlink:href="../../df/d33/2phase_2equation_8_h.html#a3a8a2441eaa31b39ea3e88f80244754f" target="_top" xlink:title=" ">
<polygon fill="white" stroke="#666666" points="349.92,-76 286.67,-76 286.67,-56 349.92,-56 349.92,-76"/>
<text xml:space="preserve" text-anchor="middle" x="318.3" y="-62.5" font-family="Helvetica,sans-Serif" font-size="10.00">cal_u_max</text>
</a>
</g>
</g>
<!-- Node2&#45;&gt;Node3 -->
<g id="edge2_Node000002_Node000003" class="edge">
<title>Node2&#45;&gt;Node3</title>
<g id="a_edge2_Node000002_Node000003"><a xlink:title=" ">
<path fill="none" stroke="#63b8ff" d="M207.1,-66C230.11,-66 254.93,-66 275.18,-66"/>
<polygon fill="#63b8ff" stroke="#63b8ff" points="275.02,-69.5 285.02,-66 275.02,-62.5 275.02,-69.5"/>
</a>
</g>
</g>
<!-- Node4 -->
<g id="Node000004" class="node">
<title>Node4</title>
<g id="a_Node000004"><a xlink:href="../../df/d33/2phase_2equation_8_h.html#a59b7c8ae2d89ef254c24ced244772fbf" target="_top" xlink:title=" ">
<polygon fill="white" stroke="#666666" points="504.3,-95 429.8,-95 429.8,-75 504.3,-75 504.3,-95"/>
<text xml:space="preserve" text-anchor="middle" x="467.05" y="-81.5" font-family="Helvetica,sans-Serif" font-size="10.00">cons_to_prim</text>
</a>
</g>
</g>
<!-- Node3&#45;&gt;Node4 -->
<g id="edge3_Node000003_Node000004" class="edge">
<title>Node3&#45;&gt;Node4</title>
<g id="a_edge3_Node000003_Node000004"><a xlink:title=" ">
<path fill="none" stroke="#63b8ff" d="M350.42,-70.03C370.12,-72.58 395.99,-75.93 418.27,-78.81"/>
<polygon fill="#63b8ff" stroke="#63b8ff" points="417.67,-82.26 428.03,-80.08 418.56,-75.32 417.67,-82.26"/>
</a>
</g>
</g>
<!-- Node5 -->
<g id="Node000005" class="node">
<title>Node5</title>
<g id="a_Node000005"><a xlink:href="../../df/d33/2phase_2equation_8_h.html#a8e46684cef61d54c6502098050bee198" target="_top" xlink:title=" ">
<polygon fill="white" stroke="#666666" points="598.3,-76 540.3,-76 540.3,-56 598.3,-56 598.3,-76"/>
<text xml:space="preserve" text-anchor="middle" x="569.3" y="-62.5" font-family="Helvetica,sans-Serif" font-size="10.00">eos_cons</text>
</a>
</g>
</g>
<!-- Node3&#45;&gt;Node5 -->
<g id="edge6_Node000003_Node000005" class="edge">
<title>Node3&#45;&gt;Node5</title>
<g id="a_edge6_Node000003_Node000005"><a xlink:title=" ">
<path fill="none" stroke="#63b8ff" d="M350.33,-66C395.47,-66 479.24,-66 528.75,-66"/>
<polygon fill="#63b8ff" stroke="#63b8ff" points="528.44,-69.5 538.44,-66 528.44,-62.5 528.44,-69.5"/>
</a>
</g>
</g>
<!-- Node4&#45;&gt;Node5 -->
<g id="edge4_Node000004_Node000005" class="edge">
<title>Node4&#45;&gt;Node5</title>
<g id="a_edge4_Node000004_Node000005"><a xlink:title=" ">
<path fill="none" stroke="#63b8ff" d="M504.53,-78.09C512.35,-76.6 520.65,-75.03 528.59,-73.53"/>
<polygon fill="#63b8ff" stroke="#63b8ff" points="529.21,-76.97 538.38,-71.67 527.9,-70.09 529.21,-76.97"/>
</a>
</g>
</g>
<!-- Node6 -->
<g id="Node000006" class="node">
<title>Node6</title>
<g id="a_Node000006"><a xlink:href="../../d7/db7/struct_prob_parm.html#a506f9938fbbf07d6d933e025ff581ec4" target="_top" xlink:title=" ">
<polygon fill="white" stroke="#666666" points="750.05,-76 634.3,-76 634.3,-56 750.05,-56 750.05,-76"/>
<text xml:space="preserve" text-anchor="middle" x="692.17" y="-62.5" font-family="Helvetica,sans-Serif" font-size="10.00">ProbParm::cal_gamma</text>
</a>
</g>
</g>
<!-- Node5&#45;&gt;Node6 -->
<g id="edge5_Node000005_Node000006" class="edge">
<title>Node5&#45;&gt;Node6</title>
<g id="a_edge5_Node000005_Node000006"><a xlink:title=" ">
<path fill="none" stroke="#63b8ff" d="M598.64,-66C605.93,-66 614.1,-66 622.49,-66"/>
<polygon fill="#63b8ff" stroke="#63b8ff" points="622.48,-69.5 632.48,-66 622.48,-62.5 622.48,-69.5"/>
</a>
</g>
</g>
<!-- Node7&#45;&gt;Node7 -->
<g id="edge9_Node000007_Node000007" class="edge">
<title>Node7&#45;&gt;Node7</title>
<g id="a_edge9_Node000007_Node000007"><a xlink:title=" ">
<path fill="none" stroke="#63b8ff" d="M116.51,-20.34C108.27,-28.98 114.7,-38 135.8,-38 147.34,-38 154.49,-35.3 157.26,-31.44"/>
<polygon fill="#63b8ff" stroke="#63b8ff" points="160.73,-30.97 155.38,-21.82 153.86,-32.31 160.73,-30.97"/>
</a>
</g>
</g>
<!-- Node8 -->
<g id="Node000008" class="node">
<title>Node8</title>
<g id="a_Node000008"><a xlink:href="../../d2/d85/class_amr_level_cong.html#ab0abdbcb27e3f7b4cee7f98f9ce49767" target="_top" xlink:title=" ">
<polygon fill="white" stroke="#666666" points="393.8,-20 242.8,-20 242.8,0 393.8,0 393.8,-20"/>
<text xml:space="preserve" text-anchor="middle" x="318.3" y="-6.5" font-family="Helvetica,sans-Serif" font-size="10.00">AmrLevelCong::AmrLevelCong</text>
</a>
</g>
</g>
<!-- Node7&#45;&gt;Node8 -->
<g id="edge8_Node000007_Node000008" class="edge">
<title>Node7&#45;&gt;Node8</title>
<g id="a_edge8_Node000007_Node000008"><a xlink:title=" ">
<path fill="none" stroke="#63b8ff" d="M197.91,-10C208.65,-10 220,-10 231.27,-10"/>
<polygon fill="#63b8ff" stroke="#63b8ff" points="230.97,-13.5 240.97,-10 230.97,-6.5 230.97,-13.5"/>
</a>
</g>
</g>
</g>
</svg>
