<?xml version="1.0" encoding="UTF-8" standalone="no"?>
<!DOCTYPE svg PUBLIC "-//W3C//DTD SVG 1.1//EN"
 "http://www.w3.org/Graphics/SVG/1.1/DTD/svg11.dtd">
<!-- Generated by graphviz version 14.0.5 (20251129.0259)
 -->
<!-- Title: //wsl.localhost/arch_zyc/home/archwanghongfei/Documents/GitHubWSL/CFD_inWSL_MF_initial/Euler2D/variable_set.cpp Pages: 1 -->
<!--zoomable 188 -->

<svg id="main" version="1.1" xmlns="http://www.w3.org/2000/svg" xmlns:xlink="http://www.w3.org/1999/xlink" xml:space="preserve" onload="init(evt)">

<style type="text/css"><![CDATA[
.node, .edge {opacity: 0.7;}
.node.selected, .edge.selected {opacity: 1;}
.edge:hover path { stroke: red; }
.edge:hover polygon { stroke: red; fill: red; }
]]></style>

<defs>
  <circle id="rim" cx="0" cy="0" r="7"/>
  <circle id="rim2" cx="0" cy="0" r="3.5"/>
  <g id="zoomPlus">
    <use xlink:href="#rim" fill="#404040"><set attributeName="fill" to="#808080" begin="zoomplus.mouseover" end="zoomplus.mouseout"/></use>
    <path d="M-4,0h8M0,-4v8" fill="none" stroke="white" stroke-width="1.5" pointer-events="none"/>
  </g>
  <g id="zoomMin">
    <use xlink:href="#rim" fill="#404040"><set attributeName="fill" to="#808080" begin="zoomminus.mouseover" end="zoomminus.mouseout"/></use>
    <path d="M-4,0h8" fill="none" stroke="white" stroke-width="1.5" pointer-events="none"/>
  </g>
  <g id="arrowUp" transform="translate(30 24)">
    <use xlink:href="#rim"/>
    <path pointer-events="none" fill="none" stroke="white" stroke-width="1.5" d="M0,-3.0v7 M-2.5,-0.5L0,-3.0L2.5,-0.5"/>
  </g>
  <g id="arrowRight" transform="rotate(90) translate(36 -43)">
    <use xlink:href="#rim"/>
    <path pointer-events="none" fill="none" stroke="white" stroke-width="1.5" d="M0,-3.0v7 M-2.5,-0.5L0,-3.0L2.5,-0.5"/>
  </g>
  <g id="arrowDown" transform="rotate(180) translate(-30 -48)">
    <use xlink:href="#rim"/>
    <path pointer-events="none" fill="none" stroke="white" stroke-width="1.5" d="M0,-3.0v7 M-2.5,-0.5L0,-3.0L2.5,-0.5"/>
  </g>
  <g id="arrowLeft" transform="rotate(270) translate(-36 17)">
    <use xlink:href="#rim"/>
    <path pointer-events="none" fill="none" stroke="white" stroke-width="1.5" d="M0,-3.0v7 M-2.5,-0.5L0,-3.0L2.5,-0.5"/>
  </g>
  <g id="resetDef">
    <use xlink:href="#rim2" fill="#404040"><set attributeName="fill" to="#808080" begin="reset.mouseover" end="reset.mouseout"/></use>
  </g>
</defs>
<script type="application/ecmascript">
var viewWidth = 783;
var viewHeight = 188;
var sectionId = 'dynsection-0';
</script>
<script type="application/ecmascript" xlink:href="../../svg.min.js"/>
<svg id="graph" class="graph">
<g id="viewport">
<title>//wsl.localhost/arch_zyc/home/archwanghongfei/Documents/GitHubWSL/CFD_inWSL_MF_initial/Euler2D/variable_set.cpp</title>
<!-- Node1 -->
<g id="Node000001" class="node">
<title>Node1</title>
<g id="a_Node000001"><a xlink:title=" ">
<polygon fill="#999999" stroke="#666666" points="657.12,-180 508.38,-180 508.38,-112 657.12,-112 657.12,-180"/>
<text xml:space="preserve" text-anchor="start" x="516.38" y="-166.5" font-family="Helvetica,sans-Serif" font-size="10.00">//wsl.localhost/arch</text>
<text xml:space="preserve" text-anchor="start" x="516.38" y="-154.5" font-family="Helvetica,sans-Serif" font-size="10.00">_zyc/home/archwanghongfei</text>
<text xml:space="preserve" text-anchor="start" x="516.38" y="-142.5" font-family="Helvetica,sans-Serif" font-size="10.00">/Documents/GitHubWSL/CFD</text>
<text xml:space="preserve" text-anchor="start" x="516.38" y="-130.5" font-family="Helvetica,sans-Serif" font-size="10.00">_inWSL_MF_initial/Euler2D</text>
<text xml:space="preserve" text-anchor="middle" x="582.75" y="-118.5" font-family="Helvetica,sans-Serif" font-size="10.00">/variable_set.cpp</text>
</a>
</g>
</g>
<!-- Node2 -->
<g id="Node000002" class="node">
<title>Node2</title>
<g id="a_Node000002"><a xlink:href="../../dd/de9/_amr_level_cong_8_h.html" target="_top" xlink:title=" ">
<polygon fill="white" stroke="#666666" points="505.25,-76 414.25,-76 414.25,-56 505.25,-56 505.25,-76"/>
<text xml:space="preserve" text-anchor="middle" x="459.75" y="-62.5" font-family="Helvetica,sans-Serif" font-size="10.00">AmrLevelCong.H</text>
</a>
</g>
</g>
<!-- Node1&#45;&gt;Node2 -->
<g id="edge1_Node000001_Node000002" class="edge">
<title>Node1&#45;&gt;Node2</title>
<g id="a_edge1_Node000001_Node000002"><a xlink:title=" ">
<path fill="none" stroke="#63b8ff" d="M530.23,-111.69C514.26,-101.57 497.46,-90.91 484.27,-82.55"/>
<polygon fill="#63b8ff" stroke="#63b8ff" points="486.15,-79.6 475.83,-77.2 482.4,-85.51 486.15,-79.6"/>
</a>
</g>
</g>
<!-- Node10 -->
<g id="Node000010" class="node">
<title>Node10</title>
<g id="a_Node000010"><a xlink:title=" ">
<polygon fill="#e0e0e0" stroke="#999999" points="642.12,-76 523.38,-76 523.38,-56 642.12,-56 642.12,-76"/>
<text xml:space="preserve" text-anchor="middle" x="582.75" y="-62.5" font-family="Helvetica,sans-Serif" font-size="10.00">AMReX_GpuMemory.H</text>
</a>
</g>
</g>
<!-- Node1&#45;&gt;Node10 -->
<g id="edge9_Node000001_Node000010" class="edge">
<title>Node1&#45;&gt;Node10</title>
<g id="a_edge9_Node000001_Node000010"><a xlink:title=" ">
<path fill="none" stroke="#63b8ff" d="M582.75,-111.92C582.75,-103.72 582.75,-95.17 582.75,-87.75"/>
<polygon fill="#63b8ff" stroke="#63b8ff" points="586.25,-87.79 582.75,-77.79 579.25,-87.79 586.25,-87.79"/>
</a>
</g>
</g>
<!-- Node11 -->
<g id="Node000011" class="node">
<title>Node11</title>
<g id="a_Node000011"><a xlink:title=" ">
<polygon fill="#e0e0e0" stroke="#999999" points="775.25,-76 660.25,-76 660.25,-56 775.25,-56 775.25,-76"/>
<text xml:space="preserve" text-anchor="middle" x="717.75" y="-62.5" font-family="Helvetica,sans-Serif" font-size="10.00">AMReX_ParmParse.H</text>
</a>
</g>
</g>
<!-- Node1&#45;&gt;Node11 -->
<g id="edge10_Node000001_Node000011" class="edge">
<title>Node1&#45;&gt;Node11</title>
<g id="a_edge10_Node000001_Node000011"><a xlink:title=" ">
<path fill="none" stroke="#63b8ff" d="M640.39,-111.69C658.27,-101.37 677.09,-90.49 691.69,-82.06"/>
<polygon fill="#63b8ff" stroke="#63b8ff" points="693.28,-85.18 700.19,-77.14 689.78,-79.12 693.28,-85.18"/>
</a>
</g>
</g>
<!-- Node3 -->
<g id="Node000003" class="node">
<title>Node3</title>
<g id="a_Node000003"><a xlink:title=" ">
<polygon fill="#e0e0e0" stroke="#999999" points="107.5,-20 0,-20 0,0 107.5,0 107.5,-20"/>
<text xml:space="preserve" text-anchor="middle" x="53.75" y="-6.5" font-family="Helvetica,sans-Serif" font-size="10.00">AMReX_AmrLevel.H</text>
</a>
</g>
</g>
<!-- Node2&#45;&gt;Node3 -->
<g id="edge2_Node000002_Node000003" class="edge">
<title>Node2&#45;&gt;Node3</title>
<g id="a_edge2_Node000002_Node000003"><a xlink:title=" ">
<path fill="none" stroke="#63b8ff" d="M413.96,-59.16C350.29,-51.01 231.11,-35.61 118.89,-20.28"/>
<polygon fill="#63b8ff" stroke="#63b8ff" points="119.58,-16.84 109.2,-18.95 118.63,-23.78 119.58,-16.84"/>
</a>
</g>
</g>
<!-- Node4 -->
<g id="Node000004" class="node">
<title>Node4</title>
<g id="a_Node000004"><a xlink:title=" ">
<polygon fill="#e0e0e0" stroke="#999999" points="237.75,-20 125.75,-20 125.75,0 237.75,0 237.75,-20"/>
<text xml:space="preserve" text-anchor="middle" x="181.75" y="-6.5" font-family="Helvetica,sans-Serif" font-size="10.00">AMReX_FArrayBox.H</text>
</a>
</g>
</g>
<!-- Node2&#45;&gt;Node4 -->
<g id="edge3_Node000002_Node000004" class="edge">
<title>Node2&#45;&gt;Node4</title>
<g id="a_edge3_Node000002_Node000004"><a xlink:title=" ">
<path fill="none" stroke="#63b8ff" d="M413.84,-56.08C366.72,-46.93 293.17,-32.64 241.53,-22.61"/>
<polygon fill="#63b8ff" stroke="#63b8ff" points="242.5,-19.24 232.02,-20.76 241.17,-26.11 242.5,-19.24"/>
</a>
</g>
</g>
<!-- Node5 -->
<g id="Node000005" class="node">
<title>Node5</title>
<g id="a_Node000005"><a xlink:title=" ">
<polygon fill="#e0e0e0" stroke="#999999" points="377.62,-20 255.88,-20 255.88,0 377.62,0 377.62,-20"/>
<text xml:space="preserve" text-anchor="middle" x="316.75" y="-6.5" font-family="Helvetica,sans-Serif" font-size="10.00">AMReX_FluxRegister.H</text>
</a>
</g>
</g>
<!-- Node2&#45;&gt;Node5 -->
<g id="edge4_Node000002_Node000005" class="edge">
<title>Node2&#45;&gt;Node5</title>
<g id="a_edge4_Node000002_Node000005"><a xlink:title=" ">
<path fill="none" stroke="#63b8ff" d="M434.84,-55.59C412.02,-46.97 377.97,-34.12 352.29,-24.42"/>
<polygon fill="#63b8ff" stroke="#63b8ff" points="353.86,-21.27 343.27,-21.01 351.39,-27.82 353.86,-21.27"/>
</a>
</g>
</g>
<!-- Node6 -->
<g id="Node000006" class="node">
<title>Node6</title>
<g id="a_Node000006"><a xlink:title=" ">
<polygon fill="#e0e0e0" stroke="#999999" points="523.62,-20 395.88,-20 395.88,0 523.62,0 523.62,-20"/>
<text xml:space="preserve" text-anchor="middle" x="459.75" y="-6.5" font-family="Helvetica,sans-Serif" font-size="10.00">AMReX_PhysBCFunct.H</text>
</a>
</g>
</g>
<!-- Node2&#45;&gt;Node6 -->
<g id="edge5_Node000002_Node000006" class="edge">
<title>Node2&#45;&gt;Node6</title>
<g id="a_edge5_Node000002_Node000006"><a xlink:title=" ">
<path fill="none" stroke="#63b8ff" d="M459.75,-55.59C459.75,-49.01 459.75,-39.96 459.75,-31.73"/>
<polygon fill="#63b8ff" stroke="#63b8ff" points="463.25,-31.81 459.75,-21.81 456.25,-31.81 463.25,-31.81"/>
</a>
</g>
</g>
<!-- Node7 -->
<g id="Node000007" class="node">
<title>Node7</title>
<g id="a_Node000007"><a xlink:title=" ">
<polygon fill="#e0e0e0" stroke="#999999" points="595.5,-20 542,-20 542,0 595.5,0 595.5,-20"/>
<text xml:space="preserve" text-anchor="middle" x="568.75" y="-6.5" font-family="Helvetica,sans-Serif" font-size="10.00">iostream</text>
</a>
</g>
</g>
<!-- Node2&#45;&gt;Node7 -->
<g id="edge6_Node000002_Node000007" class="edge">
<title>Node2&#45;&gt;Node7</title>
<g id="a_edge6_Node000002_Node000007"><a xlink:title=" ">
<path fill="none" stroke="#63b8ff" d="M478.74,-55.59C495.51,-47.28 520.24,-35.03 539.54,-25.47"/>
<polygon fill="#63b8ff" stroke="#63b8ff" points="540.85,-28.73 548.26,-21.15 537.74,-22.45 540.85,-28.73"/>
</a>
</g>
</g>
<!-- Node8 -->
<g id="Node000008" class="node">
<title>Node8</title>
<g id="a_Node000008"><a xlink:title=" ">
<polygon fill="#e0e0e0" stroke="#999999" points="664.38,-20 613.12,-20 613.12,0 664.38,0 664.38,-20"/>
<text xml:space="preserve" text-anchor="middle" x="638.75" y="-6.5" font-family="Helvetica,sans-Serif" font-size="10.00">memory</text>
</a>
</g>
</g>
<!-- Node2&#45;&gt;Node8 -->
<g id="edge7_Node000002_Node000008" class="edge">
<title>Node2&#45;&gt;Node8</title>
<g id="a_edge7_Node000002_Node000008"><a xlink:title=" ">
<path fill="none" stroke="#63b8ff" d="M490.93,-55.59C521.84,-46.27 569.19,-31.98 601.94,-22.11"/>
<polygon fill="#63b8ff" stroke="#63b8ff" points="602.85,-25.49 611.41,-19.25 600.83,-18.79 602.85,-25.49"/>
</a>
</g>
</g>
<!-- Node9 -->
<g id="Node000009" class="node">
<title>Node9</title>
<g id="a_Node000009"><a xlink:title=" ">
<polygon fill="#e0e0e0" stroke="#999999" points="757.38,-20 682.12,-20 682.12,0 757.38,0 757.38,-20"/>
<text xml:space="preserve" text-anchor="middle" x="719.75" y="-6.5" font-family="Helvetica,sans-Serif" font-size="10.00">Prob_Parm.H</text>
</a>
</g>
</g>
<!-- Node2&#45;&gt;Node9 -->
<g id="edge8_Node000002_Node000009" class="edge">
<title>Node2&#45;&gt;Node9</title>
<g id="a_edge8_Node000002_Node000009"><a xlink:title=" ">
<path fill="none" stroke="#63b8ff" d="M505.34,-55.53C551.62,-45.92 623.05,-31.08 670.58,-21.21"/>
<polygon fill="#63b8ff" stroke="#63b8ff" points="671.27,-24.64 680.34,-19.18 669.84,-17.79 671.27,-24.64"/>
</a>
</g>
</g>
</g>
</svg>

<g id="navigator" transform="translate(0 0)" fill="#404254">
  <rect fill="#f2f5e9" fill-opacity="0.5" stroke="#606060" stroke-width=".5" x="0" y="0" width="60" height="60"/>
  <use id="zoomplus" xlink:href="#zoomPlus" x="17" y="9" onmousedown="handleZoom(evt,'in')"/>
  <use id="zoomminus" xlink:href="#zoomMin" x="42" y="9" onmousedown="handleZoom(evt,'out')"/>
  <use id="reset" xlink:href="#resetDef" x="30" y="36" onmousedown="handleReset()"/>
   <use id="arrowup" xlink:href="#arrowUp" x="0" y="0" onmousedown="handlePan(0,-1)"/>
  <use id="arrowright" xlink:href="#arrowRight" x="0" y="0" onmousedown="handlePan(1,0)"/>
  <use id="arrowdown" xlink:href="#arrowDown" x="0" y="0" onmousedown="handlePan(0,1)"/>
  <use id="arrowleft" xlink:href="#arrowLeft" x="0" y="0" onmousedown="handlePan(-1,0)"/>
</g>
<svg viewBox="0 0 15 15" width="100%" height="30px" preserveAspectRatio="xMaxYMin meet">
 <g id="arrow_out" transform="scale(0.3 0.3)">
  <a xlink:href="_euler2_d_2variable__set_8cpp__incl_org.svg" target="_base">
   <rect id="button" ry="5" rx="5" y="6" x="6" height="38" width="38"
        fill="#f2f5e9" fill-opacity="0.5" stroke="#606060" stroke-width="1.0"/>
   <path id="arrow"
     d="M 11.500037,31.436501 C 11.940474,20.09759 22.043105,11.32322 32.158766,21.979434 L 37.068811,17.246167 C 37.068811,17.246167 37.088388,32 37.088388,32 L 22.160133,31.978069 C 22.160133,31.978069 26.997745,27.140456 26.997745,27.140456 C 18.528582,18.264221 13.291696,25.230495 11.500037,31.436501 z"
     style="fill:#404040;"/>
  </a>
 </g>
</svg>

<style type='text/css'>
<![CDATA[
[data-mouse-over-selected='false'] { opacity: 0.7; }
[data-mouse-over-selected='true']  { opacity: 1.0; }
]]>
</style>
<script type="application/ecmascript"><![CDATA[
document.addEventListener('DOMContentLoaded', (event) => {
  highlightEdges();
  highlightAdjacentNodes();
});
]]></script>
</svg>
