<?xml version="1.0" encoding="UTF-8" standalone="no"?>
<!DOCTYPE svg PUBLIC "-//W3C//DTD SVG 1.1//EN"
 "http://www.w3.org/Graphics/SVG/1.1/DTD/svg11.dtd">
<!-- Generated by graphviz version 14.0.5 (20251129.0259)
 -->
<!-- Title: reconstruction_scheme/fifth_order_recon.H Pages: 1 -->
<svg width="946pt" height="208pt"
 viewBox="0.00 0.00 946.00 208.00" xmlns="http://www.w3.org/2000/svg" xmlns:xlink="http://www.w3.org/1999/xlink">
<g id="graph0" class="graph" transform="scale(1 1) rotate(0) translate(4 204)">
<title>reconstruction_scheme/fifth_order_recon.H</title>
<!-- Node1 -->
<g id="Node000001" class="node">
<title>Node1</title>
<g id="a_Node000001"><a xlink:title=" ">
<polygon fill="#999999" stroke="#666666" points="704.25,-200 587,-200 587,-168 704.25,-168 704.25,-200"/>
<text xml:space="preserve" text-anchor="start" x="595" y="-186.5" font-family="Helvetica,sans-Serif" font-size="10.00">reconstruction_scheme</text>
<text xml:space="preserve" text-anchor="middle" x="645.62" y="-174.5" font-family="Helvetica,sans-Serif" font-size="10.00">/fifth_order_recon.H</text>
</a>
</g>
</g>
<!-- Node2 -->
<g id="Node000002" class="node">
<title>Node2</title>
<g id="a_Node000002"><a xlink:href="../../d0/d9f/eigen__system_8_h.html" target="_top" xlink:title=" ">
<polygon fill="white" stroke="#666666" points="207.25,-132 120,-132 120,-112 207.25,-112 207.25,-132"/>
<text xml:space="preserve" text-anchor="middle" x="163.62" y="-118.5" font-family="Helvetica,sans-Serif" font-size="10.00">eigen_system.H</text>
</a>
</g>
</g>
<!-- Node1&#45;&gt;Node2 -->
<g id="edge1_Node000001_Node000002" class="edge">
<title>Node1&#45;&gt;Node2</title>
<g id="a_edge1_Node000001_Node000002"><a xlink:title=" ">
<path fill="none" stroke="#63b8ff" d="M586.52,-175.64C492.5,-163.94 310.19,-141.24 218.74,-129.86"/>
<polygon fill="#63b8ff" stroke="#63b8ff" points="219.37,-126.41 209.02,-128.65 218.51,-133.36 219.37,-126.41"/>
</a>
</g>
</g>
<!-- Node7 -->
<g id="Node000007" class="node">
<title>Node7</title>
<g id="a_Node000007"><a xlink:href="../../da/dd9/interpolation__schemes_8_h.html" target="_top" xlink:title=" ">
<polygon fill="white" stroke="#666666" points="752.62,-132 628.62,-132 628.62,-112 752.62,-112 752.62,-132"/>
<text xml:space="preserve" text-anchor="middle" x="690.62" y="-118.5" font-family="Helvetica,sans-Serif" font-size="10.00">interpolation_schemes.H</text>
</a>
</g>
</g>
<!-- Node1&#45;&gt;Node7 -->
<g id="edge6_Node000001_Node000007" class="edge">
<title>Node1&#45;&gt;Node7</title>
<g id="a_edge6_Node000001_Node000007"><a xlink:title=" ">
<path fill="none" stroke="#63b8ff" d="M657.21,-167.55C663.2,-159.56 670.55,-149.76 676.83,-141.39"/>
<polygon fill="#63b8ff" stroke="#63b8ff" points="679.46,-143.72 682.66,-133.62 673.86,-139.52 679.46,-143.72"/>
</a>
</g>
</g>
<!-- Node10 -->
<g id="Node000010" class="node">
<title>Node10</title>
<g id="a_Node000010"><a xlink:href="../../d0/d3f/linear__algebra_8_h.html" target="_top" xlink:title=" ">
<polygon fill="white" stroke="#666666" points="643.88,-76 557.38,-76 557.38,-56 643.88,-56 643.88,-76"/>
<text xml:space="preserve" text-anchor="middle" x="600.62" y="-62.5" font-family="Helvetica,sans-Serif" font-size="10.00">linear_algebra.H</text>
</a>
</g>
</g>
<!-- Node1&#45;&gt;Node10 -->
<g id="edge9_Node000001_Node000010" class="edge">
<title>Node1&#45;&gt;Node10</title>
<g id="a_edge9_Node000001_Node000010"><a xlink:title=" ">
<path fill="none" stroke="#63b8ff" d="M636.89,-167.72C631.43,-157.77 624.54,-144.38 619.62,-132 613.84,-117.43 608.92,-100.39 605.54,-87.42"/>
<polygon fill="#63b8ff" stroke="#63b8ff" points="608.99,-86.76 603.16,-77.91 602.2,-88.46 608.99,-86.76"/>
</a>
</g>
</g>
<!-- Node11 -->
<g id="Node000011" class="node">
<title>Node11</title>
<g id="a_Node000011"><a xlink:title=" ">
<polygon fill="#e0e0e0" stroke="#999999" points="853.25,-20 748,-20 748,0 853.25,0 853.25,-20"/>
<text xml:space="preserve" text-anchor="middle" x="800.62" y="-6.5" font-family="Helvetica,sans-Serif" font-size="10.00">AMReX_BLassert.H</text>
</a>
</g>
</g>
<!-- Node1&#45;&gt;Node11 -->
<g id="edge21_Node000001_Node000011" class="edge">
<title>Node1&#45;&gt;Node11</title>
<g id="a_edge21_Node000001_Node000011"><a xlink:title=" ">
<path fill="none" stroke="#63b8ff" d="M697.92,-167.61C719.33,-159.48 743.32,-147.83 761.62,-132 783.82,-112.8 787.67,-103.95 796.62,-76 801.23,-61.63 802.12,-44.57 801.92,-31.53"/>
<polygon fill="#63b8ff" stroke="#63b8ff" points="805.42,-31.45 801.51,-21.6 798.42,-31.74 805.42,-31.45"/>
</a>
</g>
</g>
<!-- Node13 -->
<g id="Node000013" class="node">
<title>Node13</title>
<g id="a_Node000013"><a xlink:href="../../d3/d3b/positive__preserving_8_h.html" target="_top" xlink:title=" ">
<polygon fill="white" stroke="#666666" points="499.88,-132 389.38,-132 389.38,-112 499.88,-112 499.88,-132"/>
<text xml:space="preserve" text-anchor="middle" x="444.62" y="-118.5" font-family="Helvetica,sans-Serif" font-size="10.00">positive_preserving.H</text>
</a>
</g>
</g>
<!-- Node1&#45;&gt;Node13 -->
<g id="edge14_Node000001_Node000013" class="edge">
<title>Node1&#45;&gt;Node13</title>
<g id="a_edge14_Node000001_Node000013"><a xlink:title=" ">
<path fill="none" stroke="#63b8ff" d="M593.86,-167.55C560.82,-157.68 518.49,-145.05 487.36,-135.76"/>
<polygon fill="#63b8ff" stroke="#63b8ff" points="488.47,-132.44 477.89,-132.93 486.47,-139.14 488.47,-132.44"/>
</a>
</g>
</g>
<!-- Node16 -->
<g id="Node000016" class="node">
<title>Node16</title>
<g id="a_Node000016"><a xlink:title=" ">
<polygon fill="#e0e0e0" stroke="#999999" points="938,-132 843.25,-132 843.25,-112 938,-112 938,-132"/>
<text xml:space="preserve" text-anchor="middle" x="890.62" y="-118.5" font-family="Helvetica,sans-Serif" font-size="10.00">AMReX_Array4.H</text>
</a>
</g>
</g>
<!-- Node1&#45;&gt;Node16 -->
<g id="edge20_Node000001_Node000016" class="edge">
<title>Node1&#45;&gt;Node16</title>
<g id="a_edge20_Node000001_Node000016"><a xlink:title=" ">
<path fill="none" stroke="#63b8ff" d="M704.62,-168.55C746.34,-158.34 801.63,-144.79 841.06,-135.14"/>
<polygon fill="#63b8ff" stroke="#63b8ff" points="841.65,-138.6 850.53,-132.82 839.98,-131.8 841.65,-138.6"/>
</a>
</g>
</g>
<!-- Node3 -->
<g id="Node000003" class="node">
<title>Node3</title>
<g id="a_Node000003"><a xlink:title=" ">
<polygon fill="#e0e0e0" stroke="#999999" points="75.25,-76 0,-76 0,-56 75.25,-56 75.25,-76"/>
<text xml:space="preserve" text-anchor="middle" x="37.62" y="-62.5" font-family="Helvetica,sans-Serif" font-size="10.00">Prob_Parm.H</text>
</a>
</g>
</g>
<!-- Node2&#45;&gt;Node3 -->
<g id="edge2_Node000002_Node000003" class="edge">
<title>Node2&#45;&gt;Node3</title>
<g id="a_edge2_Node000002_Node000003"><a xlink:title=" ">
<path fill="none" stroke="#63b8ff" d="M141.68,-111.59C121.92,-103.13 92.63,-90.58 70.16,-80.94"/>
<polygon fill="#63b8ff" stroke="#63b8ff" points="71.71,-77.8 61.13,-77.08 68.95,-84.23 71.71,-77.8"/>
</a>
</g>
</g>
<!-- Node4 -->
<g id="Node000004" class="node">
<title>Node4</title>
<g id="a_Node000004"><a xlink:title=" ">
<polygon fill="#e0e0e0" stroke="#999999" points="195.25,-76 132,-76 132,-56 195.25,-56 195.25,-76"/>
<text xml:space="preserve" text-anchor="middle" x="163.62" y="-62.5" font-family="Helvetica,sans-Serif" font-size="10.00">equation.H</text>
</a>
</g>
</g>
<!-- Node2&#45;&gt;Node4 -->
<g id="edge3_Node000002_Node000004" class="edge">
<title>Node2&#45;&gt;Node4</title>
<g id="a_edge3_Node000002_Node000004"><a xlink:title=" ">
<path fill="none" stroke="#63b8ff" d="M163.62,-111.59C163.62,-105.01 163.62,-95.96 163.62,-87.73"/>
<polygon fill="#63b8ff" stroke="#63b8ff" points="167.13,-87.81 163.63,-77.81 160.13,-87.81 167.13,-87.81"/>
</a>
</g>
</g>
<!-- Node5 -->
<g id="Node000005" class="node">
<title>Node5</title>
<g id="a_Node000005"><a xlink:title=" ">
<polygon fill="#e0e0e0" stroke="#999999" points="325.62,-76 213.62,-76 213.62,-56 325.62,-56 325.62,-76"/>
<text xml:space="preserve" text-anchor="middle" x="269.62" y="-62.5" font-family="Helvetica,sans-Serif" font-size="10.00">AMReX_FArrayBox.H</text>
</a>
</g>
</g>
<!-- Node2&#45;&gt;Node5 -->
<g id="edge4_Node000002_Node000005" class="edge">
<title>Node2&#45;&gt;Node5</title>
<g id="a_edge4_Node000002_Node000005"><a xlink:title=" ">
<path fill="none" stroke="#63b8ff" d="M182.09,-111.59C198.33,-103.32 222.23,-91.14 240.96,-81.6"/>
<polygon fill="#63b8ff" stroke="#63b8ff" points="242.35,-84.82 249.67,-77.17 239.17,-78.59 242.35,-84.82"/>
</a>
</g>
</g>
<!-- Node6 -->
<g id="Node000006" class="node">
<title>Node6</title>
<g id="a_Node000006"><a xlink:title=" ">
<polygon fill="#e0e0e0" stroke="#999999" points="348.88,-20 256.38,-20 256.38,0 348.88,0 348.88,-20"/>
<text xml:space="preserve" text-anchor="middle" x="302.62" y="-6.5" font-family="Helvetica,sans-Serif" font-size="10.00">AMReX_REAL.H</text>
</a>
</g>
</g>
<!-- Node2&#45;&gt;Node6 -->
<g id="edge5_Node000002_Node000006" class="edge">
<title>Node2&#45;&gt;Node6</title>
<g id="a_edge5_Node000002_Node000006"><a xlink:title=" ">
<path fill="none" stroke="#63b8ff" d="M150.17,-111.57C133.25,-98.56 108.09,-74.61 122.62,-56 137.64,-36.77 197.93,-24.54 244.65,-17.76"/>
<polygon fill="#63b8ff" stroke="#63b8ff" points="244.97,-21.25 254.39,-16.4 244,-14.31 244.97,-21.25"/>
</a>
</g>
</g>
<!-- Node8 -->
<g id="Node000008" class="node">
<title>Node8</title>
<g id="a_Node000008"><a xlink:title=" ">
<polygon fill="#e0e0e0" stroke="#999999" points="788,-76 699.25,-76 699.25,-56 788,-56 788,-76"/>
<text xml:space="preserve" text-anchor="middle" x="743.62" y="-62.5" font-family="Helvetica,sans-Serif" font-size="10.00">AMReX_Array.H</text>
</a>
</g>
</g>
<!-- Node7&#45;&gt;Node8 -->
<g id="edge7_Node000007_Node000008" class="edge">
<title>Node7&#45;&gt;Node8</title>
<g id="a_edge7_Node000007_Node000008"><a xlink:title=" ">
<path fill="none" stroke="#63b8ff" d="M699.86,-111.59C707.23,-104.08 717.76,-93.35 726.64,-84.3"/>
<polygon fill="#63b8ff" stroke="#63b8ff" points="728.93,-86.97 733.44,-77.38 723.94,-82.06 728.93,-86.97"/>
</a>
</g>
</g>
<!-- Node9 -->
<g id="Node000009" class="node">
<title>Node9</title>
<g id="a_Node000009"><a xlink:title=" ">
<polygon fill="#e0e0e0" stroke="#999999" points="715.62,-20 627.62,-20 627.62,0 715.62,0 715.62,-20"/>
<text xml:space="preserve" text-anchor="middle" x="671.62" y="-6.5" font-family="Helvetica,sans-Serif" font-size="10.00">AMReX_Math.H</text>
</a>
</g>
</g>
<!-- Node7&#45;&gt;Node9 -->
<g id="edge8_Node000007_Node000009" class="edge">
<title>Node7&#45;&gt;Node9</title>
<g id="a_edge8_Node000007_Node000009"><a xlink:title=" ">
<path fill="none" stroke="#63b8ff" d="M689.01,-111.62C685.96,-94.01 679.33,-55.59 675.19,-31.65"/>
<polygon fill="#63b8ff" stroke="#63b8ff" points="678.65,-31.1 673.5,-21.85 671.75,-32.3 678.65,-31.1"/>
</a>
</g>
</g>
<!-- Node10&#45;&gt;Node6 -->
<g id="edge12_Node000010_Node000006" class="edge">
<title>Node10&#45;&gt;Node6</title>
<g id="a_edge12_Node000010_Node000006"><a xlink:title=" ">
<path fill="none" stroke="#63b8ff" d="M556.97,-57.09C504.99,-47.67 417.97,-31.9 360.44,-21.48"/>
<polygon fill="#63b8ff" stroke="#63b8ff" points="361.29,-18.07 350.83,-19.74 360.05,-24.96 361.29,-18.07"/>
</a>
</g>
</g>
<!-- Node10&#45;&gt;Node9 -->
<g id="edge11_Node000010_Node000009" class="edge">
<title>Node10&#45;&gt;Node9</title>
<g id="a_edge11_Node000010_Node000009"><a xlink:title=" ">
<path fill="none" stroke="#63b8ff" d="M612.99,-55.59C623.27,-47.77 638.14,-36.46 650.34,-27.19"/>
<polygon fill="#63b8ff" stroke="#63b8ff" points="652.35,-30.05 658.19,-21.21 648.12,-24.48 652.35,-30.05"/>
</a>
</g>
</g>
<!-- Node10&#45;&gt;Node11 -->
<g id="edge10_Node000010_Node000011" class="edge">
<title>Node10&#45;&gt;Node11</title>
<g id="a_edge10_Node000010_Node000011"><a xlink:title=" ">
<path fill="none" stroke="#63b8ff" d="M635.46,-55.59C668.53,-46.67 718.43,-33.19 754.72,-23.39"/>
<polygon fill="#63b8ff" stroke="#63b8ff" points="755.31,-26.86 764.05,-20.87 753.49,-20.1 755.31,-26.86"/>
</a>
</g>
</g>
<!-- Node12 -->
<g id="Node000012" class="node">
<title>Node12</title>
<g id="a_Node000012"><a xlink:title=" ">
<polygon fill="#e0e0e0" stroke="#999999" points="609.12,-20 566.12,-20 566.12,0 609.12,0 609.12,-20"/>
<text xml:space="preserve" text-anchor="middle" x="587.62" y="-6.5" font-family="Helvetica,sans-Serif" font-size="10.00">vector</text>
</a>
</g>
</g>
<!-- Node10&#45;&gt;Node12 -->
<g id="edge13_Node000010_Node000012" class="edge">
<title>Node10&#45;&gt;Node12</title>
<g id="a_edge13_Node000010_Node000012"><a xlink:title=" ">
<path fill="none" stroke="#63b8ff" d="M598.36,-55.59C596.76,-48.93 594.55,-39.75 592.55,-31.44"/>
<polygon fill="#63b8ff" stroke="#63b8ff" points="595.96,-30.67 590.22,-21.77 589.16,-32.31 595.96,-30.67"/>
</a>
</g>
</g>
<!-- Node13&#45;&gt;Node4 -->
<g id="edge15_Node000013_Node000004" class="edge">
<title>Node13&#45;&gt;Node4</title>
<g id="a_edge15_Node000013_Node000004"><a xlink:title=" ">
<path fill="none" stroke="#63b8ff" d="M391.63,-111.55C345.41,-103.19 276.27,-90.44 206.58,-76.35"/>
<polygon fill="#63b8ff" stroke="#63b8ff" points="207.37,-72.94 196.87,-74.37 205.98,-79.8 207.37,-72.94"/>
</a>
</g>
</g>
<!-- Node13&#45;&gt;Node5 -->
<g id="edge18_Node000013_Node000005" class="edge">
<title>Node13&#45;&gt;Node5</title>
<g id="a_edge18_Node000013_Node000005"><a xlink:title=" ">
<path fill="none" stroke="#63b8ff" d="M414.14,-111.59C385.59,-102.78 342.68,-89.54 311.03,-79.78"/>
<polygon fill="#63b8ff" stroke="#63b8ff" points="312.38,-76.53 301.79,-76.93 310.32,-83.22 312.38,-76.53"/>
</a>
</g>
</g>
<!-- Node13&#45;&gt;Node10 -->
<g id="edge16_Node000013_Node000010" class="edge">
<title>Node13&#45;&gt;Node10</title>
<g id="a_edge16_Node000013_Node000010"><a xlink:title=" ">
<path fill="none" stroke="#63b8ff" d="M471.8,-111.59C496.92,-102.9 534.51,-89.89 562.6,-80.16"/>
<polygon fill="#63b8ff" stroke="#63b8ff" points="563.5,-83.55 571.81,-76.97 561.21,-76.94 563.5,-83.55"/>
</a>
</g>
</g>
<!-- Node14 -->
<g id="Node000014" class="node">
<title>Node14</title>
<g id="a_Node000014"><a xlink:title=" ">
<polygon fill="#e0e0e0" stroke="#999999" points="437.62,-76 343.62,-76 343.62,-56 437.62,-56 437.62,-76"/>
<text xml:space="preserve" text-anchor="middle" x="390.62" y="-62.5" font-family="Helvetica,sans-Serif" font-size="10.00">physical_bound.H</text>
</a>
</g>
</g>
<!-- Node13&#45;&gt;Node14 -->
<g id="edge17_Node000013_Node000014" class="edge">
<title>Node13&#45;&gt;Node14</title>
<g id="a_edge17_Node000013_Node000014"><a xlink:title=" ">
<path fill="none" stroke="#63b8ff" d="M435.22,-111.59C427.71,-104.08 416.98,-93.35 407.93,-84.3"/>
<polygon fill="#63b8ff" stroke="#63b8ff" points="410.54,-81.96 400.99,-77.37 405.59,-86.91 410.54,-81.96"/>
</a>
</g>
</g>
<!-- Node15 -->
<g id="Node000015" class="node">
<title>Node15</title>
<g id="a_Node000015"><a xlink:title=" ">
<polygon fill="#e0e0e0" stroke="#999999" points="539.75,-76 455.5,-76 455.5,-56 539.75,-56 539.75,-76"/>
<text xml:space="preserve" text-anchor="middle" x="497.62" y="-62.5" font-family="Helvetica,sans-Serif" font-size="10.00">AMReX_Gpu.H</text>
</a>
</g>
</g>
<!-- Node13&#45;&gt;Node15 -->
<g id="edge19_Node000013_Node000015" class="edge">
<title>Node13&#45;&gt;Node15</title>
<g id="a_edge19_Node000013_Node000015"><a xlink:title=" ">
<path fill="none" stroke="#63b8ff" d="M453.86,-111.59C461.23,-104.08 471.76,-93.35 480.64,-84.3"/>
<polygon fill="#63b8ff" stroke="#63b8ff" points="482.93,-86.97 487.44,-77.38 477.94,-82.06 482.93,-86.97"/>
</a>
</g>
</g>
</g>
</svg>
