<?xml version="1.0" encoding="UTF-8" standalone="no"?>
<!DOCTYPE svg PUBLIC "-//W3C//DTD SVG 1.1//EN"
 "http://www.w3.org/Graphics/SVG/1.1/DTD/svg11.dtd">
<!-- Generated by graphviz version 14.0.5 (20251129.0259)
 -->
<!-- Title: AmrLevelCong::getLevel Pages: 1 -->
<svg width="318pt" height="46pt"
 viewBox="0.00 0.00 318.00 46.00" xmlns="http://www.w3.org/2000/svg" xmlns:xlink="http://www.w3.org/1999/xlink">
<g id="graph0" class="graph" transform="scale(1 1) rotate(0) translate(4 42)">
<title>AmrLevelCong::getLevel</title>
<!-- Node1 -->
<g id="Node000001" class="node">
<title>Node1</title>
<g id="a_Node000001"><a xlink:title=" ">
<polygon fill="#999999" stroke="#666666" points="123.25,-20 0,-20 0,0 123.25,0 123.25,-20"/>
<text xml:space="preserve" text-anchor="middle" x="61.62" y="-6.5" font-family="Helvetica,sans-Serif" font-size="10.00">AmrLevelCong::getLevel</text>
</a>
</g>
</g>
<!-- Node1&#45;&gt;Node1 -->
<g id="edge2_Node000001_Node000001" class="edge">
<title>Node1&#45;&gt;Node1</title>
<g id="a_edge2_Node000001_Node000001"><a xlink:title=" ">
<path fill="none" stroke="#63b8ff" d="M34.12,-20.34C22.36,-28.98 31.53,-38 61.62,-38 78.55,-38 88.86,-35.14 92.55,-31.11"/>
<polygon fill="#63b8ff" stroke="#63b8ff" points="95.95,-30.26 89.59,-21.78 89.28,-32.37 95.95,-30.26"/>
</a>
</g>
</g>
<!-- Node2 -->
<g id="Node000002" class="node">
<title>Node2</title>
<g id="a_Node000002"><a xlink:href="../../d2/d85/class_amr_level_cong.html#ab0abdbcb27e3f7b4cee7f98f9ce49767" target="_top" xlink:title=" ">
<polygon fill="white" stroke="#666666" points="310.25,-20 159.25,-20 159.25,0 310.25,0 310.25,-20"/>
<text xml:space="preserve" text-anchor="middle" x="234.75" y="-6.5" font-family="Helvetica,sans-Serif" font-size="10.00">AmrLevelCong::AmrLevelCong</text>
</a>
</g>
</g>
<!-- Node1&#45;&gt;Node2 -->
<g id="edge1_Node000001_Node000002" class="edge">
<title>Node1&#45;&gt;Node2</title>
<g id="a_edge1_Node000001_Node000002"><a xlink:title=" ">
<path fill="none" stroke="#63b8ff" d="M123.44,-10C131.21,-10 139.28,-10 147.36,-10"/>
<polygon fill="#63b8ff" stroke="#63b8ff" points="147.24,-13.5 157.24,-10 147.24,-6.5 147.24,-13.5"/>
</a>
</g>
</g>
</g>
</svg>
