<?xml version="1.0" encoding="UTF-8" standalone="no"?>
<!DOCTYPE svg PUBLIC "-//W3C//DTD SVG 1.1//EN"
 "http://www.w3.org/Graphics/SVG/1.1/DTD/svg11.dtd">
<!-- Generated by graphviz version 14.0.5 (20251129.0259)
 -->
<!-- Title: reconstruction_scheme/positive_preserving.H Pages: 1 -->
<svg width="617pt" height="152pt"
 viewBox="0.00 0.00 617.00 152.00" xmlns="http://www.w3.org/2000/svg" xmlns:xlink="http://www.w3.org/1999/xlink">
<g id="graph0" class="graph" transform="scale(1 1) rotate(0) translate(4 148)">
<title>reconstruction_scheme/positive_preserving.H</title>
<!-- Node1 -->
<g id="Node000001" class="node">
<title>Node1</title>
<g id="a_Node000001"><a xlink:title=" ">
<polygon fill="#999999" stroke="#666666" points="388.25,-144 271,-144 271,-112 388.25,-112 388.25,-144"/>
<text xml:space="preserve" text-anchor="start" x="279" y="-130.5" font-family="Helvetica,sans-Serif" font-size="10.00">reconstruction_scheme</text>
<text xml:space="preserve" text-anchor="middle" x="329.62" y="-118.5" font-family="Helvetica,sans-Serif" font-size="10.00">/positive_preserving.H</text>
</a>
</g>
</g>
<!-- Node2 -->
<g id="Node000002" class="node">
<title>Node2</title>
<g id="a_Node000002"><a xlink:title=" ">
<polygon fill="#e0e0e0" stroke="#999999" points="160.25,-76 97,-76 97,-56 160.25,-56 160.25,-76"/>
<text xml:space="preserve" text-anchor="middle" x="128.62" y="-62.5" font-family="Helvetica,sans-Serif" font-size="10.00">equation.H</text>
</a>
</g>
</g>
<!-- Node1&#45;&gt;Node2 -->
<g id="edge1_Node000001_Node000002" class="edge">
<title>Node1&#45;&gt;Node2</title>
<g id="a_edge1_Node000001_Node000002"><a xlink:title=" ">
<path fill="none" stroke="#63b8ff" d="M277.86,-111.55C244.82,-101.68 202.49,-89.05 171.36,-79.76"/>
<polygon fill="#63b8ff" stroke="#63b8ff" points="172.47,-76.44 161.89,-76.93 170.47,-83.14 172.47,-76.44"/>
</a>
</g>
</g>
<!-- Node3 -->
<g id="Node000003" class="node">
<title>Node3</title>
<g id="a_Node000003"><a xlink:href="../../d0/d3f/linear__algebra_8_h.html" target="_top" xlink:title=" ">
<polygon fill="white" stroke="#666666" points="264.88,-76 178.38,-76 178.38,-56 264.88,-56 264.88,-76"/>
<text xml:space="preserve" text-anchor="middle" x="221.62" y="-62.5" font-family="Helvetica,sans-Serif" font-size="10.00">linear_algebra.H</text>
</a>
</g>
</g>
<!-- Node1&#45;&gt;Node3 -->
<g id="edge2_Node000001_Node000003" class="edge">
<title>Node1&#45;&gt;Node3</title>
<g id="a_edge2_Node000001_Node000003"><a xlink:title=" ">
<path fill="none" stroke="#63b8ff" d="M301.81,-111.55C285.41,-102.43 264.75,-90.96 248.5,-81.93"/>
<polygon fill="#63b8ff" stroke="#63b8ff" points="250.32,-78.94 239.88,-77.14 246.92,-85.06 250.32,-78.94"/>
</a>
</g>
</g>
<!-- Node8 -->
<g id="Node000008" class="node">
<title>Node8</title>
<g id="a_Node000008"><a xlink:title=" ">
<polygon fill="#e0e0e0" stroke="#999999" points="376.62,-76 282.62,-76 282.62,-56 376.62,-56 376.62,-76"/>
<text xml:space="preserve" text-anchor="middle" x="329.62" y="-62.5" font-family="Helvetica,sans-Serif" font-size="10.00">physical_bound.H</text>
</a>
</g>
</g>
<!-- Node1&#45;&gt;Node8 -->
<g id="edge7_Node000001_Node000008" class="edge">
<title>Node1&#45;&gt;Node8</title>
<g id="a_edge7_Node000001_Node000008"><a xlink:title=" ">
<path fill="none" stroke="#63b8ff" d="M329.62,-111.55C329.62,-104.34 329.62,-95.66 329.62,-87.88"/>
<polygon fill="#63b8ff" stroke="#63b8ff" points="333.13,-87.92 329.63,-77.92 326.13,-87.92 333.13,-87.92"/>
</a>
</g>
</g>
<!-- Node9 -->
<g id="Node000009" class="node">
<title>Node9</title>
<g id="a_Node000009"><a xlink:title=" ">
<polygon fill="#e0e0e0" stroke="#999999" points="506.62,-76 394.62,-76 394.62,-56 506.62,-56 506.62,-76"/>
<text xml:space="preserve" text-anchor="middle" x="450.62" y="-62.5" font-family="Helvetica,sans-Serif" font-size="10.00">AMReX_FArrayBox.H</text>
</a>
</g>
</g>
<!-- Node1&#45;&gt;Node9 -->
<g id="edge8_Node000001_Node000009" class="edge">
<title>Node1&#45;&gt;Node9</title>
<g id="a_edge8_Node000001_Node000009"><a xlink:title=" ">
<path fill="none" stroke="#63b8ff" d="M360.79,-111.55C379.52,-102.26 403.2,-90.52 421.54,-81.42"/>
<polygon fill="#63b8ff" stroke="#63b8ff" points="422.89,-84.66 430.3,-77.08 419.78,-78.39 422.89,-84.66"/>
</a>
</g>
</g>
<!-- Node10 -->
<g id="Node000010" class="node">
<title>Node10</title>
<g id="a_Node000010"><a xlink:title=" ">
<polygon fill="#e0e0e0" stroke="#999999" points="608.75,-76 524.5,-76 524.5,-56 608.75,-56 608.75,-76"/>
<text xml:space="preserve" text-anchor="middle" x="566.62" y="-62.5" font-family="Helvetica,sans-Serif" font-size="10.00">AMReX_Gpu.H</text>
</a>
</g>
</g>
<!-- Node1&#45;&gt;Node10 -->
<g id="edge9_Node000001_Node000010" class="edge">
<title>Node1&#45;&gt;Node10</title>
<g id="a_edge9_Node000001_Node000010"><a xlink:title=" ">
<path fill="none" stroke="#63b8ff" d="M388.51,-112.09C428.39,-102 480.46,-88.82 517.98,-79.31"/>
<polygon fill="#63b8ff" stroke="#63b8ff" points="518.83,-82.71 527.66,-76.86 517.11,-75.93 518.83,-82.71"/>
</a>
</g>
</g>
<!-- Node4 -->
<g id="Node000004" class="node">
<title>Node4</title>
<g id="a_Node000004"><a xlink:title=" ">
<polygon fill="#e0e0e0" stroke="#999999" points="105.25,-20 0,-20 0,0 105.25,0 105.25,-20"/>
<text xml:space="preserve" text-anchor="middle" x="52.62" y="-6.5" font-family="Helvetica,sans-Serif" font-size="10.00">AMReX_BLassert.H</text>
</a>
</g>
</g>
<!-- Node3&#45;&gt;Node4 -->
<g id="edge3_Node000003_Node000004" class="edge">
<title>Node3&#45;&gt;Node4</title>
<g id="a_edge3_Node000003_Node000004"><a xlink:title=" ">
<path fill="none" stroke="#63b8ff" d="M192.19,-55.59C164.73,-46.82 123.53,-33.66 93.01,-23.9"/>
<polygon fill="#63b8ff" stroke="#63b8ff" points="94.32,-20.65 83.73,-20.94 92.19,-27.32 94.32,-20.65"/>
</a>
</g>
</g>
<!-- Node5 -->
<g id="Node000005" class="node">
<title>Node5</title>
<g id="a_Node000005"><a xlink:title=" ">
<polygon fill="#e0e0e0" stroke="#999999" points="211.62,-20 123.62,-20 123.62,0 211.62,0 211.62,-20"/>
<text xml:space="preserve" text-anchor="middle" x="167.62" y="-6.5" font-family="Helvetica,sans-Serif" font-size="10.00">AMReX_Math.H</text>
</a>
</g>
</g>
<!-- Node3&#45;&gt;Node5 -->
<g id="edge4_Node000003_Node000005" class="edge">
<title>Node3&#45;&gt;Node5</title>
<g id="a_edge4_Node000003_Node000005"><a xlink:title=" ">
<path fill="none" stroke="#63b8ff" d="M212.22,-55.59C204.71,-48.08 193.98,-37.35 184.93,-28.3"/>
<polygon fill="#63b8ff" stroke="#63b8ff" points="187.54,-25.96 177.99,-21.37 182.59,-30.91 187.54,-25.96"/>
</a>
</g>
</g>
<!-- Node6 -->
<g id="Node000006" class="node">
<title>Node6</title>
<g id="a_Node000006"><a xlink:title=" ">
<polygon fill="#e0e0e0" stroke="#999999" points="321.88,-20 229.38,-20 229.38,0 321.88,0 321.88,-20"/>
<text xml:space="preserve" text-anchor="middle" x="275.62" y="-6.5" font-family="Helvetica,sans-Serif" font-size="10.00">AMReX_REAL.H</text>
</a>
</g>
</g>
<!-- Node3&#45;&gt;Node6 -->
<g id="edge5_Node000003_Node000006" class="edge">
<title>Node3&#45;&gt;Node6</title>
<g id="a_edge5_Node000003_Node000006"><a xlink:title=" ">
<path fill="none" stroke="#63b8ff" d="M231.03,-55.59C238.54,-48.08 249.27,-37.35 258.32,-28.3"/>
<polygon fill="#63b8ff" stroke="#63b8ff" points="260.66,-30.91 265.26,-21.37 255.71,-25.96 260.66,-30.91"/>
</a>
</g>
</g>
<!-- Node7 -->
<g id="Node000007" class="node">
<title>Node7</title>
<g id="a_Node000007"><a xlink:title=" ">
<polygon fill="#e0e0e0" stroke="#999999" points="383.12,-20 340.12,-20 340.12,0 383.12,0 383.12,-20"/>
<text xml:space="preserve" text-anchor="middle" x="361.62" y="-6.5" font-family="Helvetica,sans-Serif" font-size="10.00">vector</text>
</a>
</g>
</g>
<!-- Node3&#45;&gt;Node7 -->
<g id="edge6_Node000003_Node000007" class="edge">
<title>Node3&#45;&gt;Node7</title>
<g id="a_edge6_Node000003_Node000007"><a xlink:title=" ">
<path fill="none" stroke="#63b8ff" d="M246.01,-55.59C269.08,-46.7 303.85,-33.29 329.23,-23.49"/>
<polygon fill="#63b8ff" stroke="#63b8ff" points="330.33,-26.82 338.41,-19.96 327.82,-20.29 330.33,-26.82"/>
</a>
</g>
</g>
</g>
</svg>
